<?xml version="1.0" standalone="no"?>
<!DOCTYPE svg PUBLIC "-//W3C//DTD SVG 20010904//EN"
 "http://www.w3.org/TR/2001/REC-SVG-20010904/DTD/svg10.dtd">
<svg version="1.0" xmlns="http://www.w3.org/2000/svg"
 width="720.000000pt" height="720.000000pt" viewBox="0 0 720.000000 720.000000"
 preserveAspectRatio="xMidYMid meet">
<metadata>
Created by potrace 1.14, written by Peter Selinger 2001-2017
</metadata>
<g transform="translate(0.000000,720.000000) scale(0.100000,-0.100000)"
fill="#000000" stroke="none">
<path d="M3463 6705 c-164 -46 -228 -110 -407 -410 -76 -126 -141 -237 -146
-245 -25 -41 -106 -177 -115 -193 -5 -9 -55 -92 -110 -184 -55 -92 -102 -171
-104 -177 -2 -6 -7 -13 -11 -16 -4 -3 -23 -34 -44 -70 -20 -36 -41 -72 -46
-80 -43 -66 -140 -234 -140 -241 0 -5 -4 -9 -10 -9 -5 0 -10 -4 -10 -9 0 -12
-63 -115 -72 -119 -5 -2 -8 -9 -8 -15 -1 -7 -21 -43 -45 -82 -25 -38 -48 -77
-52 -85 -4 -8 -44 -77 -90 -153 -46 -76 -83 -142 -83 -146 0 -5 -6 -14 -14
-20 -8 -7 -27 -36 -41 -64 -15 -29 -33 -59 -40 -67 -7 -8 -14 -20 -16 -25 -2
-6 -35 -61 -73 -124 -76 -125 -74 -109 -18 -206 16 -27 46 -79 67 -115 21 -36
46 -80 56 -97 11 -18 27 -48 38 -65 10 -18 60 -105 111 -193 51 -88 102 -176
113 -195 10 -19 40 -71 66 -115 26 -44 50 -87 54 -95 4 -8 16 -28 27 -45 11
-16 23 -37 27 -45 12 -26 205 -354 215 -367 6 -7 8 -13 5 -13 -4 0 4 -16 18
-35 13 -20 30 -49 37 -65 7 -17 16 -30 20 -30 5 0 8 -4 8 -9 0 -9 150 -275
167 -296 4 -5 21 -35 37 -65 16 -30 35 -62 42 -71 8 -8 14 -18 14 -22 0 -5 36
-69 85 -149 5 -9 21 -38 35 -65 14 -26 28 -50 32 -53 4 -3 12 -17 17 -30 6
-14 33 -61 61 -105 27 -44 49 -86 50 -92 0 -7 3 -13 8 -13 4 0 12 -10 17 -23
15 -31 59 -110 68 -122 19 -24 207 -356 207 -365 0 -6 4 -10 10 -10 5 0 12
-11 16 -25 3 -14 10 -25 15 -25 5 0 9 -4 9 -9 0 -5 46 -90 103 -188 l103 -178
1505 1 c827 0 1522 4 1544 8 22 4 45 9 51 10 6 1 40 16 75 33 96 48 171 125
217 225 79 169 62 309 -61 518 -37 62 -67 116 -67 120 0 5 -3 10 -8 12 -4 2
-43 64 -86 138 -44 74 -85 142 -91 150 -7 8 -23 35 -36 60 -13 25 -28 49 -32
55 -18 23 -227 379 -227 387 0 4 -4 8 -10 8 -5 0 -10 6 -10 14 0 7 -7 19 -15
26 -8 7 -13 16 -10 20 2 4 -4 15 -15 25 -11 10 -20 23 -20 29 0 5 -11 26 -24
45 -13 20 -77 126 -142 236 -65 110 -122 202 -126 203 -5 2 -8 8 -8 13 0 7
-31 62 -90 159 -79 131 -348 580 -356 595 -18 35 -48 80 -57 86 -5 3 -8 9 -7
13 0 4 -36 68 -82 144 -46 75 -88 146 -94 157 -35 64 -169 283 -182 298 -8 9
-11 17 -7 17 4 0 1 8 -7 18 -9 9 -30 44 -48 77 -18 33 -36 62 -39 65 -8 7 -29
41 -40 65 -5 11 -20 36 -33 55 -13 19 -27 42 -31 50 -4 8 -13 24 -20 35 -7 11
-34 59 -62 105 -27 47 -52 87 -55 90 -3 3 -10 14 -16 25 -16 29 -603 1014
-629 1055 -13 19 -67 109 -120 200 -164 276 -188 313 -241 365 -52 50 -129 96
-194 116 -60 18 -200 20 -257 4z"/>
<path d="M980 2832 c0 -10 -120 -214 -131 -222 -3 -3 -9 -15 -13 -27 -4 -13
-12 -23 -17 -23 -5 0 -9 -5 -9 -11 0 -11 -69 -130 -129 -224 -14 -22 -34 -56
-44 -75 -11 -19 -25 -42 -33 -51 -8 -8 -14 -18 -14 -22 0 -3 -39 -70 -86 -149
-48 -79 -96 -159 -108 -179 -18 -31 -169 -284 -197 -329 -187 -308 -201 -343
-194 -489 4 -100 25 -162 82 -247 35 -50 105 -124 119 -124 2 0 22 -11 43 -24
21 -14 65 -33 97 -42 55 -17 131 -18 1002 -19 518 0 942 4 942 8 0 5 -13 32
-29 60 -73 131 -405 705 -421 727 -9 14 -20 35 -24 48 -4 12 -12 22 -17 22 -5
0 -9 6 -9 13 0 7 -13 34 -30 60 -16 26 -40 66 -52 89 -13 24 -36 62 -51 85
-15 24 -27 45 -27 47 0 3 -36 66 -80 142 -44 75 -80 140 -80 145 0 5 -5 9 -11
9 -5 0 -8 4 -4 9 3 5 1 12 -4 16 -6 3 -28 38 -51 78 -22 39 -54 95 -70 122
-16 28 -37 66 -47 85 -9 19 -19 37 -22 40 -10 9 -42 64 -48 83 -3 9 -9 17 -14
17 -5 0 -9 5 -9 11 0 6 -19 44 -43 83 -24 39 -46 78 -50 86 -5 8 -13 24 -20
35 -7 11 -27 46 -45 77 -32 56 -52 79 -52 60z"/>
</g>
</svg>
