<svg width="145" height="44" viewBox="0 0 145 44" fill="none" xmlns="http://www.w3.org/2000/svg">
<path d="M59.0284 35.3963C62.1094 35.3963 63.9503 33.9517 64.794 32.3026H64.9474V35H69.3963V21.858C69.3963 16.6676 65.1648 15.108 61.419 15.108C57.2898 15.108 54.1193 16.9489 53.0966 20.5284L57.4176 21.142C57.8778 19.7997 59.1818 18.6491 61.4446 18.6491C63.5923 18.6491 64.7685 19.7486 64.7685 21.679V21.7557C64.7685 23.0852 63.375 23.1491 59.9105 23.5199C56.1009 23.929 52.4574 25.0668 52.4574 29.4901C52.4574 33.3509 55.2827 35.3963 59.0284 35.3963ZM60.2301 31.9957C58.2997 31.9957 56.919 31.1136 56.919 29.4134C56.919 27.6364 58.4659 26.8949 60.5369 26.6009C61.7514 26.4347 64.1804 26.1278 64.7812 25.642V27.956C64.7812 30.142 63.017 31.9957 60.2301 31.9957ZM78.6776 23.4943C78.6776 20.6562 80.3906 19.0199 82.8324 19.0199C85.223 19.0199 86.6548 20.5923 86.6548 23.2131V35H91.2827V22.4972C91.2955 17.7926 88.6108 15.108 84.5582 15.108C81.6179 15.108 79.598 16.5142 78.7031 18.7003H78.473V15.3636H74.0497V35H78.6776V23.4943ZM95.9872 35H100.615V15.3636H95.9872V35ZM98.3139 12.5767C99.7841 12.5767 100.986 11.4517 100.986 10.071C100.986 8.67756 99.7841 7.55256 98.3139 7.55256C96.831 7.55256 95.6293 8.67756 95.6293 10.071C95.6293 11.4517 96.831 12.5767 98.3139 12.5767ZM115.32 15.3636H111.242V13.8168C111.242 12.2827 111.881 11.4261 113.607 11.4261C114.336 11.4261 114.949 11.5923 115.333 11.7074L116.266 8.12784C115.665 7.9233 114.348 7.59091 112.75 7.59091C109.337 7.59091 106.614 9.54688 106.614 13.5099V15.3636H103.712V18.9432H106.614V35H111.242V18.9432H115.32V15.3636ZM121.821 42.3636C125.426 42.3636 127.51 40.5099 128.622 37.3778L136.51 15.3892L131.562 15.3636L127.024 30.1932H126.819L122.294 15.3636H117.385L124.505 35.4091L124.109 36.4702C123.252 38.7074 121.897 38.8608 119.877 38.2727L118.804 41.8778C119.43 42.1335 120.555 42.3636 121.821 42.3636Z" fill="#111827"/>
<path d="M139.357 35.3324C140.993 35.3324 142.412 33.9645 142.425 32.2642C142.412 30.5895 140.993 29.2216 139.357 29.2216C137.669 29.2216 136.276 30.5895 136.288 32.2642C136.276 33.9645 137.669 35.3324 139.357 35.3324Z" fill="url(#paint0_linear)"/>
<path fill-rule="evenodd" clip-rule="evenodd" d="M24.9696 4.45965C23.8052 2.51345 20.9854 2.51345 19.8209 4.45965L10.7293 19.6543L23.2883 41.4072H41.786C44.1162 41.4072 45.5568 38.8665 44.3603 36.8668L24.9696 4.45965ZM14.3788 41.4072L6.19501 27.2324L0.430265 36.8668C-0.766206 38.8665 0.674376 41.4072 3.00463 41.4072H14.3788Z" fill="url(#paint1_linear)"/>
<defs>
<linearGradient id="paint0_linear" x1="139" y1="30" x2="142.5" y2="40" gradientUnits="userSpaceOnUse">
<stop stop-color="#6EE7B7"/>
<stop offset="1" stop-color="#1D4ED8"/>
</linearGradient>
<linearGradient id="paint1_linear" x1="14" y1="17" x2="55" y2="54.5" gradientUnits="userSpaceOnUse">
<stop stop-color="#6EE7B7"/>
<stop offset="1" stop-color="#1D4ED8"/>
</linearGradient>
</defs>
</svg>
